<mxfile host="app.diagrams.net" modified="2023-04-17T16:00:55.397Z" agent="Mozilla/5.0 (Macintosh; Intel Mac OS X 10_15_7) AppleWebKit/537.36 (KHTML, like Gecko) Chrome/112.0.0.0 Safari/537.36" etag="TmC3D8mpOUKq_9imH_gJ" version="21.1.8" type="device">
  <diagram name="Page-1" id="GjS1Mem9yn8qAtI_JCT5">
    <mxGraphModel dx="1434" dy="632" grid="1" gridSize="10" guides="1" tooltips="1" connect="1" arrows="1" fold="1" page="1" pageScale="1" pageWidth="1169" pageHeight="827" math="0" shadow="0">
      <root>
        <mxCell id="0" />
        <mxCell id="1" parent="0" />
        <mxCell id="zaJBsKNT6RyjItxkQreM-1" value="用户" style="ellipse;whiteSpace=wrap;html=1;fillColor=#fff2cc;strokeColor=#d6b656;" vertex="1" parent="1">
          <mxGeometry x="160" y="220" width="110" height="80" as="geometry" />
        </mxCell>
        <mxCell id="zaJBsKNT6RyjItxkQreM-2" value="角色" style="ellipse;whiteSpace=wrap;html=1;fillColor=#dae8fc;strokeColor=#6c8ebf;" vertex="1" parent="1">
          <mxGeometry x="360" y="220" width="110" height="80" as="geometry" />
        </mxCell>
        <mxCell id="zaJBsKNT6RyjItxkQreM-3" value="权限" style="ellipse;whiteSpace=wrap;html=1;fillColor=#d5e8d4;strokeColor=#82b366;" vertex="1" parent="1">
          <mxGeometry x="550" y="220" width="110" height="80" as="geometry" />
        </mxCell>
        <mxCell id="zaJBsKNT6RyjItxkQreM-4" value="API" style="ellipse;whiteSpace=wrap;html=1;fillColor=#e1d5e7;strokeColor=#9673a6;" vertex="1" parent="1">
          <mxGeometry x="730" y="220" width="110" height="80" as="geometry" />
        </mxCell>
        <mxCell id="zaJBsKNT6RyjItxkQreM-9" value="角色" style="ellipse;whiteSpace=wrap;html=1;fillColor=#dae8fc;strokeColor=#6c8ebf;" vertex="1" parent="1">
          <mxGeometry x="360" y="310" width="110" height="80" as="geometry" />
        </mxCell>
        <mxCell id="zaJBsKNT6RyjItxkQreM-10" value="角色" style="ellipse;whiteSpace=wrap;html=1;fillColor=#dae8fc;strokeColor=#6c8ebf;" vertex="1" parent="1">
          <mxGeometry x="360" y="130" width="110" height="80" as="geometry" />
        </mxCell>
        <mxCell id="zaJBsKNT6RyjItxkQreM-11" value="权限" style="ellipse;whiteSpace=wrap;html=1;fillColor=#d5e8d4;strokeColor=#82b366;" vertex="1" parent="1">
          <mxGeometry x="550" y="130" width="110" height="80" as="geometry" />
        </mxCell>
        <mxCell id="zaJBsKNT6RyjItxkQreM-12" value="自定义权限" style="ellipse;whiteSpace=wrap;html=1;fillColor=#d5e8d4;strokeColor=#82b366;" vertex="1" parent="1">
          <mxGeometry x="550" y="40" width="110" height="80" as="geometry" />
        </mxCell>
        <mxCell id="zaJBsKNT6RyjItxkQreM-13" value="API" style="ellipse;whiteSpace=wrap;html=1;fillColor=#e1d5e7;strokeColor=#9673a6;" vertex="1" parent="1">
          <mxGeometry x="730" y="130" width="110" height="80" as="geometry" />
        </mxCell>
        <mxCell id="zaJBsKNT6RyjItxkQreM-15" value="" style="endArrow=classic;html=1;rounded=0;" edge="1" parent="1">
          <mxGeometry width="50" height="50" relative="1" as="geometry">
            <mxPoint x="310" y="290" as="sourcePoint" />
            <mxPoint x="360" y="170" as="targetPoint" />
            <Array as="points">
              <mxPoint x="310" y="170" />
            </Array>
          </mxGeometry>
        </mxCell>
        <mxCell id="zaJBsKNT6RyjItxkQreM-16" value="" style="endArrow=classic;html=1;rounded=0;" edge="1" parent="1">
          <mxGeometry width="50" height="50" relative="1" as="geometry">
            <mxPoint x="310" y="290" as="sourcePoint" />
            <mxPoint x="360" y="350" as="targetPoint" />
            <Array as="points">
              <mxPoint x="310" y="350" />
            </Array>
          </mxGeometry>
        </mxCell>
        <mxCell id="zaJBsKNT6RyjItxkQreM-17" value="" style="endArrow=classic;html=1;rounded=0;" edge="1" parent="1">
          <mxGeometry width="50" height="50" relative="1" as="geometry">
            <mxPoint x="270" y="260" as="sourcePoint" />
            <mxPoint x="360" y="259.5" as="targetPoint" />
          </mxGeometry>
        </mxCell>
        <mxCell id="zaJBsKNT6RyjItxkQreM-18" value="" style="endArrow=classic;html=1;rounded=0;entryX=0;entryY=0.5;entryDx=0;entryDy=0;" edge="1" parent="1" target="zaJBsKNT6RyjItxkQreM-11">
          <mxGeometry width="50" height="50" relative="1" as="geometry">
            <mxPoint x="470" y="169.5" as="sourcePoint" />
            <mxPoint x="540" y="169.5" as="targetPoint" />
          </mxGeometry>
        </mxCell>
        <mxCell id="zaJBsKNT6RyjItxkQreM-19" value="" style="endArrow=classic;html=1;rounded=0;" edge="1" parent="1">
          <mxGeometry width="50" height="50" relative="1" as="geometry">
            <mxPoint x="500" y="170" as="sourcePoint" />
            <mxPoint x="550" y="80" as="targetPoint" />
            <Array as="points">
              <mxPoint x="500" y="80" />
            </Array>
          </mxGeometry>
        </mxCell>
        <mxCell id="zaJBsKNT6RyjItxkQreM-20" value="" style="endArrow=classic;html=1;rounded=0;" edge="1" parent="1">
          <mxGeometry width="50" height="50" relative="1" as="geometry">
            <mxPoint x="500" y="170" as="sourcePoint" />
            <mxPoint x="550" y="260" as="targetPoint" />
            <Array as="points">
              <mxPoint x="500" y="260" />
            </Array>
          </mxGeometry>
        </mxCell>
        <mxCell id="zaJBsKNT6RyjItxkQreM-21" value="" style="endArrow=classic;html=1;rounded=0;entryX=0;entryY=0.5;entryDx=0;entryDy=0;" edge="1" parent="1" target="zaJBsKNT6RyjItxkQreM-13">
          <mxGeometry width="50" height="50" relative="1" as="geometry">
            <mxPoint x="660" y="169.5" as="sourcePoint" />
            <mxPoint x="720" y="169.5" as="targetPoint" />
          </mxGeometry>
        </mxCell>
        <mxCell id="zaJBsKNT6RyjItxkQreM-22" value="" style="endArrow=classic;html=1;rounded=0;entryX=0;entryY=0.5;entryDx=0;entryDy=0;" edge="1" parent="1">
          <mxGeometry width="50" height="50" relative="1" as="geometry">
            <mxPoint x="660" y="259.5" as="sourcePoint" />
            <mxPoint x="730" y="260" as="targetPoint" />
          </mxGeometry>
        </mxCell>
      </root>
    </mxGraphModel>
  </diagram>
</mxfile>
